<svg id="account_circle-24px" xmlns="http://www.w3.org/2000/svg" width="67.899" height="66.557" viewBox="0 0 67.899 66.557">
  <path id="Path_1" data-name="Path 1" d="M0,0H67.9V66.556H0Z" fill="none"/>
  <path id="Path_2" data-name="Path 2" d="M32.222,2C15.539,2,2,15.239,2,31.551S15.539,61.1,32.222,61.1,62.444,47.863,62.444,31.551,48.9,2,32.222,2Zm0,8.865a8.868,8.868,0,1,1-9.067,8.865A8.956,8.956,0,0,1,32.222,10.865Zm0,41.962a21.893,21.893,0,0,1-18.133-9.515c.091-5.881,12.089-9.1,18.133-9.1,6.014,0,18.043,3.221,18.133,9.1A21.893,21.893,0,0,1,32.222,52.828Z" transform="translate(1.727 1.727)" fill="#1ac6e0"/>
</svg>
