<svg xmlns="http://www.w3.org/2000/svg" xmlns:xlink="http://www.w3.org/1999/xlink" viewBox="0 0 260.17 166"><defs><style>.cls-1{fill:url(#linear-gradient);}.cls-2,.cls-3,.cls-4,.cls-5,.cls-6{stroke:#000;stroke-miterlimit:10;}.cls-2{fill:url(#linear-gradient-2);}.cls-3{fill:url(#linear-gradient-3);}.cls-5{fill:#fff;}.cls-6{stroke-width:2px;}</style><linearGradient id="linear-gradient" x1="6.45" y1="162.57" x2="255.66" y2="66.71" gradientUnits="userSpaceOnUse"><stop offset="0.01" stop-color="red"/><stop offset="1" stop-color="#c40000"/></linearGradient><linearGradient id="linear-gradient-2" x1="10.7" y1="76.14" x2="231.88" y2="25.04" gradientUnits="userSpaceOnUse"><stop offset="0" stop-color="red"/><stop offset="1" stop-color="#c40000"/></linearGradient><linearGradient id="linear-gradient-3" x1="120.55" y1="89.16" x2="145.77" y2="50.18" gradientUnits="userSpaceOnUse"><stop offset="0" stop-color="gray"/><stop offset="1" stop-color="#ccc"/></linearGradient></defs><g id="Layer_2" data-name="Layer 2"><g id="Layer_1-2" data-name="Layer 1"><rect class="cls-1" x="3.12" y="64.5" width="254" height="101"/><path d="M256.62,65V165H3.62V65h253m1-1H2.62V166h255V64Z"/><path class="cls-2" d="M166.85,25H226a44.56,44.56,0,0,1,20.88,11.5A44.06,44.06,0,0,1,259.62,64H.62c1.17-5.27,5.15-19.84,18.79-30.5A51.46,51.46,0,0,1,35.66,25H99.37"/><rect class="cls-3" x="119.12" y="49.5" width="27" height="42"/><circle class="cls-4" cx="80.62" cy="99" r="7.5"/><ellipse class="cls-4" cx="186.62" cy="99.5" rx="7.5" ry="8"/><rect x="130.62" y="70" width="4" height="18"/><path class="cls-4" d="M176.67,25,164.37.5H103.12L91.91,25,91,27h86.67Zm-77.3,0c2-11.5,6.21-15.75,9.75-17.5,6.37-3.15,10.51,1.9,24,2,14.11.1,18.67-5.36,25-2,3.28,1.74,7.24,5.95,8.73,17.5"/><path class="cls-5" d="M133.17,26.48l-34,0"/><line class="cls-6" x1="101.12" y1="139.75" x2="169.07" y2="139.75"/></g></g></svg>