<svg id="settings-24px" xmlns="http://www.w3.org/2000/svg" width="67.899" height="67.107" viewBox="0 0 67.899 67.107">
  <path id="Path_5" data-name="Path 5" d="M0,0H67.9V67.107H0Z" fill="none"/>
  <path id="Path_6" data-name="Path 6" d="M53.5,34.149a20.814,20.814,0,0,0,.185-2.832,17,17,0,0,0-.216-2.832l6.263-4.759a1.454,1.454,0,0,0,.37-1.837l-5.923-10a1.524,1.524,0,0,0-1.82-.663l-7.373,2.892a21.925,21.925,0,0,0-5-2.832L38.873,3.635A1.482,1.482,0,0,0,37.393,2.4H25.546A1.45,1.45,0,0,0,24.1,3.635l-1.111,7.651a22.408,22.408,0,0,0-5,2.832l-7.373-2.892a1.489,1.489,0,0,0-1.82.663l-5.892,10a1.349,1.349,0,0,0,.37,1.837l6.262,4.759a16.37,16.37,0,0,0-.062,5.663L3.211,38.909a1.454,1.454,0,0,0-.37,1.837l5.923,10a1.524,1.524,0,0,0,1.82.663l7.373-2.892a21.925,21.925,0,0,0,5,2.832L24.066,59a1.506,1.506,0,0,0,1.481,1.235H37.393A1.428,1.428,0,0,0,38.843,59l1.111-7.651a21.287,21.287,0,0,0,5-2.832l7.373,2.892a1.489,1.489,0,0,0,1.82-.663l5.923-10a1.373,1.373,0,0,0-.37-1.837ZM31.469,42.162A11.01,11.01,0,0,1,20.364,31.318a11.109,11.109,0,0,1,22.212,0A11.01,11.01,0,0,1,31.469,42.162Z" transform="translate(2.48 2.236)" fill="#1ac6e0"/>
</svg>
